<svg xmlns="http://www.w3.org/2000/svg" viewBox="0 0 512 512">
  <defs>
    <radialGradient id="bg" cx="50%" cy="38%" r="70%">
      <stop offset="0%" stop-color="#3a2a14"/>
      <stop offset="55%" stop-color="#1c140d"/>
      <stop offset="100%" stop-color="#0c0906"/>
    </radialGradient>
    <linearGradient id="gold" x1="0%" y1="0%" x2="0%" y2="100%">
      <stop offset="0%" stop-color="#f6e3a8"/>
      <stop offset="50%" stop-color="#c9a84c"/>
      <stop offset="100%" stop-color="#8a6b32"/>
    </linearGradient>
  </defs>

  <rect width="512" height="512" fill="url(#bg)"/>

  <!-- crossed swords -->
  <g>
    <g transform="rotate(45 256 256)">
      <polygon points="240,86 272,86 272,322 256,352 240,322" fill="url(#gold)"/>
      <rect x="206" y="304" width="100" height="22" rx="4" fill="url(#gold)"/>
      <rect x="242" y="326" width="28" height="64" rx="6" fill="url(#gold)"/>
      <circle cx="256" cy="408" r="20" fill="url(#gold)"/>
    </g>
    <g transform="rotate(-45 256 256)">
      <polygon points="240,86 272,86 272,322 256,352 240,322" fill="url(#gold)"/>
      <rect x="206" y="304" width="100" height="22" rx="4" fill="url(#gold)"/>
      <rect x="242" y="326" width="28" height="64" rx="6" fill="url(#gold)"/>
      <circle cx="256" cy="408" r="20" fill="url(#gold)"/>
    </g>
  </g>
</svg>
